<svg xmlns="http://www.w3.org/2000/svg" width="147" height="147" fill="none"><g filter="url(#a)"><path fill="#fff" d="M144 45.225c0-1.686 0-3.372-.01-5.058-.008-1.42-.024-2.84-.063-4.26-.083-3.093-.266-6.214-.816-9.273-.558-3.104-1.47-5.992-2.906-8.812A29.63 29.63 0 0 0 127.24 4.863c-2.823-1.436-5.714-2.347-8.821-2.905-3.06-.55-6.181-.731-9.275-.815-1.42-.038-2.841-.055-4.262-.063-1.686-.01-3.373-.01-5.06-.01L80.237 1H65.59l-19.238.07c-1.69 0-3.38 0-5.07.01a205.09 205.09 0 0 0-4.27.063c-3.101.084-6.23.266-9.296.816-3.111.558-6.007 1.468-8.834 2.904a29.71 29.71 0 0 0-7.525 5.453A29.641 29.641 0 0 0 5.89 17.82c-1.44 2.821-2.353 5.711-2.912 8.817-.551 3.058-.734 6.177-.818 9.27a208.57 208.57 0 0 0-.063 4.259C2.087 41.852 2 43.946 2 45.632V79.41l.088 19.375c0 1.688-.001 3.376.009 5.064.009 1.422.025 2.844.064 4.265.083 3.098.266 6.223.817 9.287.56 3.107 1.473 6 2.911 8.823a29.677 29.677 0 0 0 12.99 12.977c2.829 1.438 5.726 2.351 8.84 2.909 3.065.55 6.192.733 9.292.816 1.423.039 2.846.055 4.27.064 1.69.01 3.38.01 5.07.01h53.471c1.687 0 3.374 0 5.06-.01 1.421-.009 2.842-.025 4.262-.064 3.095-.083 6.218-.266 9.279-.817 3.105-.558 5.995-1.47 8.816-2.907a29.657 29.657 0 0 0 12.966-12.977c1.437-2.824 2.348-5.718 2.906-8.828.55-3.062.733-6.186.816-9.283.039-1.421.055-2.843.063-4.265.01-1.688.01-3.376.01-5.064v-53.56z"/><path fill="url(#b)" fill-opacity=".95" d="M144 45.225c0-1.686 0-3.372-.01-5.058-.008-1.42-.024-2.84-.063-4.26-.083-3.093-.266-6.214-.816-9.273-.558-3.104-1.47-5.992-2.906-8.812A29.63 29.63 0 0 0 127.24 4.863c-2.823-1.436-5.714-2.347-8.821-2.905-3.06-.55-6.181-.731-9.275-.815-1.42-.038-2.841-.055-4.262-.063-1.686-.01-3.373-.01-5.06-.01L80.237 1H65.59l-19.238.07c-1.69 0-3.38 0-5.07.01a205.09 205.09 0 0 0-4.27.063c-3.101.084-6.23.266-9.296.816-3.111.558-6.007 1.468-8.834 2.904a29.71 29.71 0 0 0-7.525 5.453A29.641 29.641 0 0 0 5.89 17.82c-1.44 2.821-2.353 5.711-2.912 8.817-.551 3.058-.734 6.177-.818 9.27a208.57 208.57 0 0 0-.063 4.259C2.087 41.852 2 43.946 2 45.632V79.41l.088 19.375c0 1.688-.001 3.376.009 5.064.009 1.422.025 2.844.064 4.265.083 3.098.266 6.223.817 9.287.56 3.107 1.473 6 2.911 8.823a29.677 29.677 0 0 0 12.99 12.977c2.829 1.438 5.726 2.351 8.84 2.909 3.065.55 6.192.733 9.292.816 1.423.039 2.846.055 4.27.064 1.69.01 3.38.01 5.07.01h53.471c1.687 0 3.374 0 5.06-.01 1.421-.009 2.842-.025 4.262-.064 3.095-.083 6.218-.266 9.279-.817 3.105-.558 5.995-1.47 8.816-2.907a29.657 29.657 0 0 0 12.966-12.977c1.437-2.824 2.348-5.718 2.906-8.828.55-3.062.733-6.186.816-9.283.039-1.421.055-2.843.063-4.265.01-1.688.01-3.376.01-5.064v-53.56z"/><path stroke="#999" stroke-opacity=".08" d="m104.883 1.024.002-.444c1.423.008 2.847.025 4.273.063 3.102.084 6.253.267 9.349.823 3.149.565 6.088 1.49 8.96 2.952a30.164 30.164 0 0 1 13.184 13.177c1.461 2.87 2.386 5.805 2.952 8.95.557 3.097.74 6.247.824 9.35m-39.544-34.87 39.044 34.883M104.883 1.024l.002-.444c-1.567-.01-3.135-.01-4.701-.01h-.361L80.238.5h-.002m24.646.524L80.237.5m64.19 35.394-.5.014m.5-.014-.5.014m.5-.014c.038 1.425.055 2.848.063 4.27.01 1.688.01 3.375.01 5.06h-.5m-.073-9.316c.039 1.419.055 2.839.063 4.259.01 1.686.01 3.372.01 5.058m0 0h.5v53.559h-.5m0-53.56v53.56m0 0h.5c0 1.689 0 3.378-.01 5.068a203.53 203.53 0 0 1-.063 4.276c-.084 3.105-.267 6.258-.823 9.357l-.493-.088.493.088c-.566 3.152-1.492 6.093-2.953 8.967l-.446-.227.446.227a30.174 30.174 0 0 1-13.185 13.195c-2.87 1.463-5.808 2.388-8.955 2.955-3.098.557-6.25.74-9.353.824-1.426.039-2.85.055-4.273.064-1.688.01-3.376.01-5.063.01H46.351c-1.69 0-3.381 0-5.073-.01a203.963 203.963 0 0 1-4.28-.064c-3.109-.084-6.265-.267-9.368-.824-3.155-.566-6.1-1.492-8.977-2.955a30.22 30.22 0 0 1-13.21-13.196l.37-.188-.37.188c-1.463-2.872-2.39-5.812-2.957-8.962-.558-3.101-.741-6.255-.825-9.361a203.91 203.91 0 0 1-.064-4.276l.5-.003-.5.003c-.01-1.589-.01-3.178-.01-4.764v-.303L1.5 79.412V45.633c0-.85.022-1.8.045-2.745l.005-.203c.021-.878.042-1.744.047-2.521L144 98.784zM80.237.5H65.588m14.65 0h-14.65m0 0L46.35.57h-.362c-1.57 0-3.14 0-4.711.01l.003.5-.003-.5a203.91 203.91 0 0 0-4.28.063c-3.11.084-6.268.267-9.372.824-3.152.565-6.096 1.49-8.971 2.95M65.588.5 18.655 4.417m0 0a30.21 30.21 0 0 0-7.652 5.545 30.142 30.142 0 0 0-5.558 7.632c-1.465 2.87-2.393 5.808-2.96 8.955m16.17-22.132L2.485 26.549m0 0c-.557 3.095-.74 6.244-.824 9.345m.825-9.345-.825 9.345m0 0a204.572 204.572 0 0 0-.064 4.27l.064-4.27z"/><g clip-path="url(#c)"><path fill="#FFD6CF" d="M72.936 120.845V106.87L38.07 65.343h-8.262c-3.074 0-4.727 3.567-2.777 5.913l39.03 46.384c1.785 2.114 4.33 3.205 6.875 3.172"/><path fill="#FA5650" d="M72.935 120.844c2.544 0 5.056-1.057 6.84-3.205l39.196-46.78c.529-.66.827-1.453.827-2.312V30.785a3.61 3.61 0 0 0-3.603-3.6H29.773c-3.04 0-4.726 3.567-2.743 5.913l45.938 54.775v32.938l-.033.033z"/><path fill="#FF9A8A" d="M72.935 106.838 27.03 52.228c-1.983-2.346-.297-5.914 2.776-5.914h8.296L73 87.908v18.963l-.066-.033z"/></g></g></svg>